<?xml version="1.0" encoding="UTF-8"?>
<!DOCTYPE svg PUBLIC "-//W3C//DTD SVG 1.1//EN" "http://www.w3.org/Graphics/SVG/1.1/DTD/svg11.dtd">
<!-- Creator: CorelDRAW X7 -->
<svg xmlns="http://www.w3.org/2000/svg" xml:space="preserve" width="81.204mm" height="21.3715mm" version="1.1" style="shape-rendering:geometricPrecision; text-rendering:geometricPrecision; image-rendering:optimizeQuality; fill-rule:evenodd; clip-rule:evenodd"
viewBox="0 0 1361 358"
 xmlns:xlink="http://www.w3.org/1999/xlink">
 <defs>
  <style type="text/css">
   <![CDATA[
    .str0 {stroke:#FEFEFE;stroke-width:5.02964}
    .str1 {stroke:#FEFEFE;stroke-width:1.27753}
    .fil0 {fill:none}
    .fil2 {fill:#08A9DB}
    .fil4 {fill:#F6CA40}
    .fil3 {fill:#F76F70}
    .fil1 {fill:#FEFEFE;fill-rule:nonzero}
   ]]>
  </style>
 </defs>
 <g id="Layer_x0020_1">
  <metadata id="CorelCorpID_0Corel-Layer"/>
  <polygon class="fil0 str0" points="77,105 111,105 111,165 77,165 "/>
  <polyline class="fil0 str0" points="112,121 201,121 256,73 "/>
  <polyline class="fil0 str0" points="103,164 273,337 221,192 132,286 "/>
  <line class="fil0 str0" x1="143" y1="207" x2="110" y2= "313" />
  <line class="fil0 str0" x1="75" y1="314" x2="221" y2= "314" />
  <line class="fil0 str0" x1="78" y1="326" x2="249" y2= "327" />
  <line class="fil0 str0" x1="226" y1="337" x2="322" y2= "337" />
  <line class="fil0 str0" x1="259" y1="94" x2="220" y2= "194" />
  <path class="fil0 str0" d="M254 34c-3,-1 -8,-5 -9,-6 -2,12 2,20 10,26 1,12 1,24 2,36 0,2 3,4 6,4 3,0 5,-2 5,-5 0,-12 -1,-24 -1,-36 10,-4 3,-29 3,-40 -3,2 -4,4 -6,6 -3,-3 -4,-10 -2,-16 -13,3 -10,21 -8,31z"/>
  <path class="fil0 str0" d="M175 51c19,0 34,16 34,35 0,19 -15,34 -34,34 -19,0 -34,-15 -34,-34 0,-19 15,-35 34,-35z"/>
  <path class="fil0 str0" d="M142 85l6 -6c3,1 6,2 10,4 1,-4 3,-8 4,-12l10 4 2 -11c3,2 6,4 8,6 0,-3 1,-6 1,-9 3,3 6,6 9,8 1,-2 1,-9 1,-12"/>
  <path class="fil0 str0" d="M79 86l0 63 7 0c0,-18 0,-36 0,-54 -1,-5 -5,-8 -7,-9z"/>
  <polygon class="fil0 str0" points="87,124 97,132 87,137 "/>
  <path class="fil0 str1" d="M135 284c13,0 22,10 22,22 0,12 -9,22 -22,22 -12,0 -22,-10 -22,-22 0,-12 10,-22 22,-22zm11 8c2,0 4,2 4,4 0,2 -2,4 -4,4 -2,0 -4,-2 -4,-4 0,-2 2,-4 4,-4zm5 10c2,0 4,2 4,4 0,2 -2,4 -4,4 -3,0 -4,-2 -4,-4 0,-2 1,-4 4,-4zm-5 11c2,0 4,1 4,4 0,2 -2,4 -4,4 -2,0 -4,-2 -4,-4 0,-3 2,-4 4,-4zm-10 4c2,0 4,2 4,4 0,2 -2,4 -4,4 -3,0 -4,-2 -4,-4 0,-2 1,-4 4,-4zm-11 -4c2,0 4,1 4,4 0,2 -2,4 -4,4 -2,0 -4,-2 -4,-4 0,-3 2,-4 4,-4zm-4 -11c2,0 4,2 4,4 0,2 -2,4 -4,4 -2,0 -4,-2 -4,-4 0,-2 2,-4 4,-4zm4 -10c3,0 4,2 4,4 0,2 -1,4 -4,4 -2,0 -4,-2 -4,-4 0,-2 2,-4 4,-4zm11 -4c2,0 4,1 4,4 0,2 -2,4 -4,4 -3,0 -4,-2 -4,-4 0,-3 1,-4 4,-4z"/>
  <line class="fil0 str0" x1="242" y1="346" x2="338" y2= "347" />
  <line class="fil0 str0" x1="258" y1="355" x2="355" y2= "356" />
  <path class="fil1" d="M438 111l0 102 -19 0 0 -102 19 0zm45 66l0 36 -20 0 0 -102 33 0c25,0 38,11 38,32 0,11 -4,19 -12,25 -7,7 -16,10 -28,9l-11 0zm0 -50l0 35 10 0c13,0 20,-6 20,-18 0,-11 -7,-17 -20,-17l-10 0zm62 62c8,7 18,10 28,10 6,0 11,-1 14,-3 3,-2 5,-5 5,-9 0,-3 -1,-6 -4,-8 -3,-3 -9,-6 -19,-10 -8,-4 -14,-8 -18,-13 -4,-5 -6,-10 -6,-17 0,-9 4,-16 11,-21 7,-6 16,-8 28,-8 10,0 18,1 24,4l0 19c-6,-5 -14,-7 -24,-7 -5,0 -10,1 -13,3 -4,2 -5,5 -5,9 0,2 1,5 3,8 3,2 8,5 17,9 10,4 17,9 21,14 4,4 6,10 6,17 0,9 -4,17 -11,22 -7,5 -16,7 -29,7 -11,0 -21,-2 -28,-5l0 -21zm222 24l-22 0 -8 -24 -38 0 -8 24 -22 0 38 -102 23 0 37 102zm-35 -40l-12 -37c-1,-1 -2,-4 -2,-8l-1 0c0,3 0,6 -1,8l-13 37 29 0zm118 37c-8,3 -17,5 -29,5 -15,0 -27,-4 -36,-14 -9,-9 -14,-21 -14,-36 0,-16 5,-30 15,-40 10,-10 23,-15 39,-15 10,0 18,1 25,4l0 19c-7,-4 -15,-6 -24,-6 -10,0 -18,3 -25,10 -6,7 -9,15 -9,26 0,11 3,19 9,26 6,6 14,9 24,9 9,0 17,-2 25,-7l0 19zm105 3l-22 0 -8 -24 -38 0 -8 24 -22 0 38 -102 23 0 37 102zm-35 -40l-12 -37c-1,-1 -1,-4 -2,-8l0 0c-1,3 -1,6 -2,8l-13 37 29 0zm48 40l0 -102 34 0c36,0 54,17 54,50 0,16 -5,29 -15,38 -10,10 -23,14 -39,14l-34 0zm20 -85l0 69 13 0c11,0 19,-3 25,-9 7,-7 10,-15 10,-26 0,-11 -3,-20 -10,-25 -6,-6 -14,-9 -25,-9l-13 0zm145 85l-59 0 0 -102 57 0 0 17 -37 0 0 26 34 0 0 16 -34 0 0 27 39 0 0 16zm111 0l0 -63c0,-4 0,-11 1,-21l-1 0c-1,6 -2,10 -3,13l-27 71 -15 0 -27 -71c-1,-2 -2,-6 -4,-13l0 0c0,8 1,16 1,25l0 59 -18 0 0 -102 28 0 24 64c2,5 3,10 4,14l0 0c1,-4 3,-9 5,-14l24 -64 27 0 0 102 -19 0zm117 -102l-33 66 0 36 -20 0 0 -36 -32 -66 22 0 19 41c0,1 1,3 2,8l0 0c1,-3 2,-6 3,-8l18 -41 21 0z"/>
  <path class="fil1" d="M552 281l-11 0 0 36 -5 0 0 -36 -11 0 0 -4 27 0 0 4zm36 36l-4 0 0 -19 -21 0 0 19 -4 0 0 -40 4 0 0 17 21 0 0 -17 4 0 0 40zm32 0l-21 0 0 -40 20 0 0 4 -16 0 0 13 15 0 0 4 -15 0 0 15 17 0 0 4zm55 0l-6 0 -16 -19c-1,0 -1,-1 -1,-1l0 0 0 20 -5 0 0 -40 5 0 0 19 0 0c0,-1 0,-1 1,-2l15 -17 6 0 -18 19 19 21zm37 0l-5 0 -21 -33c-1,0 -1,-1 -1,-2l-1 0c1,1 1,3 1,5l0 30 -5 0 0 -40 6 0 20 32c1,1 2,2 2,2l0 0c0,-1 0,-3 0,-6l0 -28 4 0 0 40zm8 -20c0,-6 2,-11 5,-15 4,-4 9,-6 15,-6 5,0 10,2 13,6 3,3 5,8 5,14 0,7 -2,12 -5,16 -4,4 -8,5 -14,5 -6,0 -10,-1 -14,-5 -3,-4 -5,-9 -5,-15zm5 0c0,5 1,9 4,12 2,3 6,4 10,4 4,0 8,-1 11,-4 2,-3 3,-7 3,-12 0,-5 -1,-9 -3,-12 -3,-3 -6,-5 -11,-5 -4,0 -8,2 -10,5 -3,3 -4,7 -4,12zm88 -20l-11 40 -5 0 -9 -30c0,-1 0,-2 0,-4l-1 0c0,2 0,3 0,4l-9 30 -5 0 -12 -40 5 0 9 31c0,1 1,2 1,4l0 0c0,-1 0,-3 1,-4l9 -31 4 0 8 31c1,1 1,2 1,4l0 0c0,-1 0,-3 1,-4l8 -31 5 0zm27 40l-21 0 0 -40 4 0 0 36 17 0 0 4zm27 0l-21 0 0 -40 20 0 0 4 -16 0 0 13 15 0 0 4 -15 0 0 15 17 0 0 4zm8 0l0 -40 11 0c14,0 21,6 21,19 0,6 -2,11 -6,15 -4,4 -10,6 -16,6l-10 0zm4 -36l0 32 6 0c6,0 10,-2 13,-5 3,-2 4,-6 4,-12 0,-10 -5,-15 -17,-15l-6 0zm65 33c-4,2 -8,3 -13,3 -6,0 -10,-1 -14,-5 -3,-4 -5,-9 -5,-15 0,-6 2,-11 6,-15 4,-4 9,-6 15,-6 4,0 8,1 11,2l0 5c-4,-2 -7,-3 -12,-3 -4,0 -8,2 -11,5 -3,3 -4,7 -4,12 0,5 1,9 4,12 2,3 6,4 11,4 3,0 6,0 8,-1l0 -12 -9 0 0 -4 13 0 0 18zm31 3l-21 0 0 -40 20 0 0 4 -16 0 0 13 15 0 0 4 -15 0 0 15 17 0 0 4zm55 0l-7 0 -15 -19c-1,0 -1,-1 -1,-1l0 0 0 20 -5 0 0 -40 5 0 0 19 0 0c0,-1 0,-1 1,-2l15 -17 5 0 -17 19 19 21zm9 0l-4 0 0 -40 4 0 0 40zm43 0l-5 0 -21 -33c-1,0 -1,-1 -2,-2l0 0c0,1 1,3 1,5l0 30 -5 0 0 -40 6 0 20 32c1,1 2,2 2,2l0 0c0,-1 0,-3 0,-6l0 -28 4 0 0 40zm40 -3c-4,2 -8,3 -13,3 -5,0 -10,-1 -14,-5 -3,-4 -5,-9 -5,-15 0,-6 2,-11 6,-15 4,-4 9,-6 15,-6 4,0 8,1 11,2l0 5c-3,-2 -7,-3 -12,-3 -4,0 -8,2 -11,5 -3,3 -4,7 -4,12 0,5 1,9 4,12 2,3 6,4 11,4 3,0 6,0 8,-1l0 -12 -9 0 0 -4 13 0 0 18zm10 3l0 -40 11 0c14,0 21,6 21,19 0,6 -2,11 -6,15 -4,4 -9,6 -16,6l-10 0zm4 -36l0 32 6 0c6,0 10,-2 13,-5 3,-2 4,-6 4,-12 0,-10 -5,-15 -16,-15l-7 0zm33 16c0,-6 2,-11 5,-15 4,-4 9,-6 15,-6 5,0 10,2 13,6 3,3 5,8 5,14 0,7 -2,12 -5,16 -4,4 -8,5 -14,5 -6,0 -10,-1 -14,-5 -3,-4 -5,-9 -5,-15zm5 0c0,5 1,9 4,12 2,3 6,4 10,4 4,0 8,-1 11,-4 2,-3 3,-7 3,-12 0,-5 -1,-9 -3,-12 -3,-3 -6,-5 -11,-5 -4,0 -8,2 -10,5 -3,3 -4,7 -4,12zm77 20l0 -27c0,-2 0,-5 0,-8l0 0c0,2 0,3 -1,4l-14 31 -2 0 -14 -31c0,-1 0,-2 -1,-4l0 0c0,1 0,4 0,8l0 27 -4 0 0 -40 6 0 12 28c1,2 2,4 2,5l0 0c1,-1 1,-3 2,-5l13 -28 5 0 0 40 -4 0z"/>
  <rect class="fil2" x="415" y="241" width="300.552" height="3.32627"/>
  <rect class="fil3" x="1052" y="241" width="300.552" height="3.32627"/>
  <rect class="fil4" x="735" y="241" width="300.552" height="3.32627"/>
  <polygon class="fil1" points="0,133 78,133 78,165 105,165 141,202 131,235 0,235 "/>
  <polygon class="fil1 str1" points="243,133 221,188 239,235 345,235 345,133 "/>
 </g>
</svg>
