<svg xmlns="http://www.w3.org/2000/svg" version="1.1" xmlns:xlink="http://www.w3.org/1999/xlink" xmlns:svgjs="http://svgjs.dev/svgjs" width="100%" height="100%" viewBox="0 0 1000 600"><rect width="1000" height="600" x="0" y="0" fill="#ed0c32"/><g><rect width="333.3333333333333" height="333.3333333333333" y="136.59767715038552" fill="black" transform="matrix(1.0928917702800025,0,0,1.0928917702800025,0,-31.435102578879324)" x="114.37542724609375"/><path d="M332.7158419497278 335.6213094169676L332.7158419497278 335.6213094169676Q332.7158419497278 349.6732695356111 325.7085978372309 359.1161867353395Q318.6638818310843 368.5591039350679 305.7360785219323 373.39297821588127Q292.77080331913066 378.2643243903443 274.97165383551555 378.2643243903443L274.97165383551555 378.2643243903443Q259.87048069468005 378.2643243903443 248.92868774896303 375.8286513031128Q238.0243666968957 373.39297821588127 229.63066251935936 369.083710446164L229.63066251935936 369.083710446164L229.63066251935936 347.49989970392755Q238.28666995244373 351.80916747364495 250.5399791759008 355.4814130513171Q262.83076029300764 359.1161867353395 275.4962603466116 359.1161867353395L275.4962603466116 359.1161867353395Q293.5951849794244 359.1161867353395 301.689114007763 353.30804321963353Q309.7830430361017 347.49989970392755 309.7830430361017 337.79467924865116L309.7830430361017 337.79467924865116Q309.7830430361017 332.39872656309205 306.8227634377741 328.0894587933748Q303.82501194579686 323.7801910236575 296.14327374760506 319.4334513602904Q288.4615355494133 315.124183590573 274.1472721752218 309.728230905014L274.1472721752218 309.728230905014Q260.1327839502281 304.3322782194549 250.16526023940366 298.9363255338958Q240.16026463492952 293.5403728483367 234.76431194937044 286.00852222474384Q229.36835926381133 278.4391997075012 229.36835926381133 266.56060942054125L229.36835926381133 266.56060942054125Q229.36835926381133 248.2368534258302 244.3571167236977 238.23185782135604Q259.30840228993435 228.2643341105316 283.5901893749502 228.2643341105316L283.5901893749502 228.2643341105316Q296.81776783329997 228.2643341105316 308.28416729011303 230.81242287871228Q319.7505667469261 233.3979835405427 329.7555623514002 237.96955456580804L329.7555623514002 237.96955456580804L321.6616333230616 256.85538896526486Q312.48101937888123 253.07072770664354 302.47602377440705 250.372751363864Q292.50850006358263 247.67477502108443 281.97889794801245 247.67477502108443L281.97889794801245 247.67477502108443Q267.402331318273 247.67477502108443 259.7205931200812 252.39623362094866Q252.03885492188945 257.11769222081284 252.03885492188945 265.21162124915145L252.03885492188945 265.21162124915145Q252.03885492188945 271.1696523394563 255.56121292496275 275.3290325345748Q259.0460990343863 279.5258846233429 267.2899156373238 283.42296156291343Q275.4962603466116 287.35751039613353 289.28591720970707 292.75346308169264L289.28591720970707 292.75346308169264Q303.0381021791528 297.8496406180541 312.7433226344292 303.2455933036131Q322.44854308970565 308.6415459891722 327.5821925197167 316.36075608101373Q332.7158419497278 324.04249427920547 332.7158419497278 335.6213094169676Z " fill="white" transform="matrix(1.0928917702800025,0,0,1.0928917702800025,0,-31.435102578879324)"/><path d="M665.5375594110556 303.1509496352347L665.5375594110556 303.1509496352347Q665.5375594110556 320.10106237856496 661.257514220014 333.8765720662882Q656.9774690289725 347.6520817540113 648.5024126573072 357.6577503132013Q640.0273562856422 367.66341887239116 627.470667413911 372.9638721884493Q614.9139785421796 378.2643255045074 598.3890358509398 378.2643255045074L598.3890358509398 378.2643255045074Q581.240510416634 378.2643255045074 568.5987875344847 372.8504935078919Q555.9570646523355 367.4366615112764 547.5670422910885 357.5443716326439Q539.2053645999807 347.6520817540113 535.1237320999146 333.7631933857307Q531.0420995998484 319.9026496875895 531.0420995998484 302.95253694425924L531.0420995998484 302.95253694425924Q531.0420995998484 280.5035581938955 538.3833691659396 263.78020281168006Q545.7529834021701 247.02850275932533 560.7473139058853 237.64641694320107Q575.7416444096004 228.26433112707682 598.5874485419151 228.26433112707682L598.5874485419151 228.26433112707682Q620.4411892193526 228.26433112707682 635.3221410425103 237.56138293278303Q650.2314375358075 246.8300900683499 657.8844984734316 263.66682413112267Q665.5375594110556 280.5035581938955 665.5375594110556 303.1509496352347ZM550.4298539751626 303.1509496352347L550.4298539751626 303.1509496352347Q550.4298539751626 321.5182958855323 555.5318946002453 334.7836015107473Q560.633935225328 348.0489071359623 571.3482205380016 355.191764011078Q582.0625058506752 362.33462088619376 598.3890358509398 362.33462088619376L598.3890358509398 362.33462088619376Q614.9139785421796 362.33462088619376 625.4298511638779 355.191764011078Q635.945723785576 348.0489071359623 641.0477644106587 334.7836015107473Q646.1498050357413 321.5182958855323 646.1498050357413 303.1509496352347L646.1498050357413 303.1509496352347Q646.1498050357413 275.59993025978827 634.7269029695841 260.0103616831468Q623.3040009034268 244.39244843636595 598.5874485419151 244.39244843636595L598.5874485419151 244.39244843636595Q582.0625058506752 244.39244843636595 571.3482205380016 251.42192663092428Q560.633935225328 258.479749495622 555.5318946002453 271.63167644027953Q550.4298539751626 284.7836033849371 550.4298539751626 303.1509496352347ZM760.2371023466178 244.59086112734138L760.2371023466178 244.59086112734138Q748.5874429193457 244.59086112734138 739.2053571032214 248.55911494685014Q729.8232712870972 252.55571343649822 723.3039971550471 260.2087743741222Q716.7563783528577 267.8618353117463 713.2983285958572 278.7745333153953Q709.8119341687174 289.6872313190444 709.8119341687174 303.3777069963495L709.8119341687174 303.3777069963495Q709.8119341687174 321.31988319455684 715.4241788563083 334.5851888197718Q721.0364235438993 347.8504944449868 732.1758789086631 354.99335132010253Q743.2869896032876 362.1362081952183 760.0386896556423 362.1362081952183L760.0386896556423 362.1362081952183Q769.619188162742 362.1362081952183 778.1792785448251 360.5205619972754Q786.7677135970476 358.8765711291933 794.9309785971799 356.4389294972093L794.9309785971799 356.4389294972093L794.9309785971799 372.34028944538363Q786.7677135970476 375.40151382043325 778.0942445344072 376.84709199754Q769.4207754717667 378.2643255045074 757.3742906625436 378.2643255045074L757.3742906625436 378.2643255045074Q735.1237246031553 378.2643255045074 720.2427727799975 369.0806523793585Q705.3334762867004 359.8969792542098 697.8788280400518 342.94686651087954Q690.4241797934033 326.0250984376887 690.4241797934033 303.1509496352347L690.4241797934033 303.1509496352347Q690.4241797934033 286.62600694399475 695.0160163559776 272.9638759368289Q699.6078529185521 259.2734002595238 708.5080793423074 249.29607637047317Q717.3799610959234 239.29040781128327 730.4468540301629 233.87657581466777Q743.485402294263 228.46274381805225 760.4355150375932 228.46274381805225L760.4355150375932 228.46274381805225Q771.660004412775 228.46274381805225 782.0624983539159 230.70197275906077Q792.4649922950567 232.96954637020863 800.628257295189 237.05117887027475L800.628257295189 237.05117887027475L793.2869877290977 252.55571343649822Q786.5693009060723 249.4944890614486 778.2926572253826 247.02850275932533Q770.0160135446929 244.59086112734138 760.2371023466178 244.59086112734138Z " fill="black" transform="matrix(1.0928917702800025,0,0,1.0928917702800025,0,-31.435102578879324)"/></g></svg>